<?xml version="1.0" standalone="no"?>
<!DOCTYPE svg PUBLIC "-//W3C//DTD SVG 20010904//EN"
 "http://www.w3.org/TR/2001/REC-SVG-20010904/DTD/svg10.dtd">
<svg version="1.0" xmlns="http://www.w3.org/2000/svg"
 width="1098.000000pt" height="720.000000pt" viewBox="0 0 1098.000000 720.000000"
 preserveAspectRatio="xMidYMid meet">

<g transform="translate(0.000000,720.000000) scale(0.100000,-0.100000)"
fill="#000000" stroke="none">
<path d="M3493 7188 c-2 -5 -32 -8 -67 -8 -34 0 -87 -4 -117 -9 -30 -5 -101
-15 -159 -22 -58 -6 -109 -16 -114 -20 -6 -5 -20 -9 -32 -9 -22 0 -238 -51
-299 -71 -144 -46 -203 -66 -285 -99 -102 -41 -233 -99 -290 -129 -77 -40
-176 -94 -197 -107 -12 -8 -39 -23 -60 -35 -47 -26 -168 -110 -237 -165 -28
-22 -65 -49 -81 -60 -112 -71 -445 -394 -581 -564 -101 -127 -284 -388 -284
-406 0 -4 -14 -30 -32 -58 -57 -94 -148 -266 -148 -282 0 -3 -14 -35 -31 -72
-17 -37 -34 -76 -39 -87 -4 -11 -13 -33 -20 -50 -16 -38 -82 -243 -103 -315
-75 -268 -117 -552 -124 -837 l-4 -173 834 0 c752 0 835 2 841 16 3 9 6 70 6
137 0 197 34 410 102 637 11 36 23 74 28 85 4 11 26 67 48 125 38 96 105 235
162 335 39 68 187 279 225 320 20 22 53 60 73 85 57 70 202 206 326 305 75 61
246 175 317 212 30 16 63 34 74 40 53 31 186 93 198 93 7 0 52 15 98 34 47 19
133 47 190 61 57 14 120 30 139 35 32 8 112 21 215 35 22 3 85 9 140 13 l100
7 111 110 c136 133 242 230 299 270 24 17 94 67 157 111 62 45 142 99 178 121
98 59 110 67 110 74 0 5 -50 29 -135 65 -45 19 -328 115 -390 132 -46 13 -231
55 -320 73 -103 20 -442 52 -458 42 -4 -3 -14 1 -22 7 -16 14 -333 11 -342 -2z"/>
<path d="M6895 7191 c-6 -5 -68 -12 -140 -15 -71 -3 -157 -10 -190 -15 -33 -6
-89 -13 -125 -17 -36 -4 -72 -11 -81 -15 -9 -5 -52 -15 -95 -23 -125 -24 -138
-27 -159 -37 -11 -5 -58 -20 -105 -33 -230 -66 -450 -160 -670 -285 -52 -30
-115 -65 -140 -79 -25 -14 -47 -28 -50 -31 -10 -12 -76 -57 -102 -70 -16 -8
-28 -18 -28 -23 0 -4 -4 -8 -10 -8 -5 0 -18 -6 -27 -14 -54 -44 -104 -83 -129
-101 -42 -30 -87 -68 -105 -87 -9 -10 -21 -18 -26 -18 -11 0 -278 -271 -355
-360 -49 -58 -140 -175 -176 -227 -107 -156 -165 -247 -187 -288 -12 -22 -32
-58 -44 -80 -13 -22 -37 -67 -53 -100 -16 -33 -40 -80 -53 -105 -51 -97 -185
-465 -185 -508 0 -10 -6 -26 -14 -37 -7 -11 -16 -42 -20 -70 -4 -27 -11 -63
-16 -80 -19 -60 -70 -366 -75 -440 -1 -27 -6 -93 -9 -145 -11 -149 -14 -248
-6 -259 4 -8 255 -10 836 -9 l829 3 7 90 c4 50 10 130 12 178 9 138 46 338 87
471 11 33 19 65 19 73 0 7 4 21 10 31 5 9 19 46 31 82 32 97 122 291 174 375
13 22 36 61 50 87 14 26 45 72 70 102 25 31 45 58 45 61 0 32 307 361 346 371
17 4 42 -15 120 -93 116 -115 163 -171 261 -307 70 -98 162 -245 173 -276 3
-8 29 -63 58 -122 47 -95 97 -217 107 -258 1 -8 10 -33 18 -55 8 -22 20 -62
27 -90 6 -27 15 -66 20 -85 5 -19 13 -60 19 -90 6 -30 15 -77 20 -105 11 -51
30 -270 34 -380 l2 -60 157 0 c86 0 159 3 163 7 7 7 -10 349 -24 483 -13 121
-50 317 -86 445 -8 30 -20 75 -26 100 -6 25 -14 54 -18 65 -5 11 -14 38 -21
60 -38 124 -91 253 -179 435 -28 58 -64 128 -80 155 -15 28 -41 73 -56 100
-44 78 -170 267 -198 297 -29 31 -59 87 -52 98 14 23 359 180 395 180 9 0 20
3 23 6 11 11 108 42 187 59 41 9 85 21 98 26 13 5 38 9 57 9 19 0 44 4 57 9
51 20 222 33 422 32 229 -1 366 -14 516 -51 19 -5 61 -14 94 -20 140 -28 352
-111 555 -216 294 -152 542 -356 773 -634 91 -110 178 -235 178 -257 0 -6 6
-16 13 -20 12 -7 87 -127 87 -138 0 -2 25 -57 56 -122 52 -108 104 -247 132
-348 6 -22 18 -65 26 -95 37 -127 65 -346 66 -507 0 -72 3 -138 6 -147 5 -14
29 -16 164 -16 152 0 159 1 165 21 9 27 -13 446 -25 479 -5 14 -11 52 -14 85
-3 33 -10 83 -15 110 -6 28 -14 70 -19 95 -11 56 -59 247 -71 280 -5 14 -23
70 -41 125 -17 55 -38 114 -46 130 -7 17 -31 73 -53 126 -56 135 -88 202 -144
299 -74 128 -85 147 -108 188 -12 20 -29 46 -38 57 -9 11 -37 49 -61 85 -185
276 -513 615 -776 803 -21 15 -82 59 -134 96 -52 38 -138 92 -190 120 -52 29
-111 62 -130 73 -73 44 -139 76 -168 83 -17 3 -36 13 -43 21 -6 8 -19 14 -28
14 -9 0 -21 4 -26 8 -9 8 -142 61 -205 82 -14 4 -34 12 -45 16 -69 26 -364
104 -470 124 -33 6 -76 16 -96 21 -21 5 -44 7 -52 4 -8 -4 -44 1 -81 9 -37 9
-102 16 -145 16 -42 0 -82 5 -88 11 -8 8 -17 8 -31 0 -14 -7 -23 -8 -27 -1 -8
12 -267 14 -280 1z"/>
<path d="M295 2830 c-3 -6 -2 -25 4 -43 5 -17 15 -52 21 -77 6 -25 27 -91 46
-146 35 -101 36 -102 72 -108 49 -8 1732 -8 1732 0 0 4 -27 62 -60 130 -33 68
-60 128 -60 134 0 5 -4 18 -9 28 -5 9 -17 34 -26 55 l-16 37 -849 0 c-558 0
-851 -3 -855 -10z"/>
<path d="M3620 2829 c0 -6 7 -36 15 -67 9 -32 21 -75 27 -97 13 -49 27 -93 39
-120 4 -11 15 -37 23 -57 l15 -38 875 0 c850 0 876 1 876 19 0 10 -11 38 -24
62 -14 24 -34 69 -46 99 -12 30 -32 78 -46 108 -13 29 -24 59 -24 66 0 7 -6
19 -14 25 -19 16 -1716 16 -1716 0z"/>
<path d="M6754 2832 c-6 -4 -15 -18 -19 -32 -4 -14 -20 -52 -35 -85 -15 -33
-35 -84 -44 -112 -10 -29 -21 -55 -26 -58 -12 -7 -40 -65 -40 -82 0 -18 392
-19 408 0 6 6 29 71 52 142 60 190 60 189 60 213 0 22 -2 22 -172 22 -95 0
-178 -4 -184 -8z"/>
<path d="M10065 2804 c-8 -20 -15 -40 -15 -44 0 -11 -46 -115 -78 -175 -48
-92 -60 -120 -55 -127 5 -9 367 -11 398 -2 20 5 51 79 85 204 7 25 16 54 20
65 8 19 18 60 23 95 2 13 -25 15 -180 18 l-183 2 -15 -36z"/>
<path d="M497 2248 c-12 -7 111 -266 137 -287 11 -9 231 -11 950 -9 514 2 937
6 940 9 3 3 -17 31 -45 62 -56 62 -166 202 -171 218 -4 11 -1793 18 -1811 7z"/>
<path d="M3825 2249 c-9 -13 91 -229 127 -275 l20 -25 944 1 c519 1 944 3 944
6 0 7 -61 82 -103 127 -18 19 -51 62 -72 95 -22 34 -50 65 -61 71 -28 12
-1792 13 -1799 0z"/>
<path d="M6458 2248 c-8 -7 -35 -40 -59 -73 -24 -33 -61 -80 -84 -106 -72 -81
-86 -100 -80 -109 6 -10 482 -14 520 -4 21 5 38 32 95 147 37 78 66 145 64
149 -9 14 -438 10 -456 -4z"/>
<path d="M9792 2250 c-12 -9 -98 -114 -122 -150 -13 -19 -27 -37 -30 -40 -39
-36 -80 -94 -71 -100 7 -4 127 -8 268 -9 299 -2 255 -23 350 169 l63 125 -33
2 c-74 5 -419 8 -425 3z"/>
<path d="M770 1736 c0 -8 32 -57 70 -110 39 -53 70 -101 70 -106 0 -33 32 -34
1128 -36 613 -1 1082 2 1082 7 0 5 -5 9 -11 9 -5 0 -37 18 -69 40 -32 22 -63
40 -67 40 -5 0 -51 34 -102 75 -51 41 -110 79 -130 85 -23 6 -379 10 -1003 10
-808 0 -968 -3 -968 -14z"/>
<path d="M4104 1727 c9 -12 23 -35 32 -52 19 -35 87 -128 123 -168 l25 -27
1090 0 1091 1 70 101 c38 56 75 107 82 113 6 7 13 21 15 31 3 19 -26 19 -1271
21 l-1273 3 16 -23z"/>
<path d="M9325 1740 c-11 -5 -49 -34 -84 -64 -35 -30 -79 -62 -96 -70 -18 -9
-38 -22 -45 -31 -7 -8 -18 -15 -25 -15 -6 0 -20 -9 -30 -20 -10 -11 -23 -20
-29 -20 -6 0 -22 -9 -35 -19 -24 -18 -17 -19 371 -20 218 -1 407 1 420 4 14 4
43 31 67 63 108 146 131 177 131 183 0 4 -15 9 -32 13 -47 9 -589 5 -613 -4z"/>
<path d="M1130 1273 c0 -15 152 -165 228 -226 l34 -27 3978 0 3979 0 38 32
c21 18 81 75 133 127 l94 96 -557 3 -558 2 -72 -23 c-128 -42 -401 -97 -414
-83 -3 3 -12 1 -19 -5 -8 -6 -105 -10 -266 -10 -204 0 -280 4 -393 21 -142 21
-362 73 -380 91 -15 15 -2485 12 -2485 -3 0 -7 19 -31 42 -55 23 -23 39 -46
35 -49 -12 -12 -429 -7 -460 5 -16 6 -47 11 -70 11 -23 0 -58 4 -77 9 -19 5
-62 14 -95 21 -61 13 -120 28 -220 55 -48 13 -223 15 -1275 15 -671 0 -1220
-3 -1220 -7z"/>
<path d="M1650 812 c1 -8 248 -172 306 -201 l40 -21 3373 0 c2704 0 3377 2
3396 12 96 52 310 192 321 209 3 5 -1599 9 -3715 9 -2047 0 -3721 -3 -3721 -8z"/>
<path d="M2470 381 c-29 -8 -19 -16 30 -25 19 -4 44 -11 55 -16 121 -50 346
-108 580 -150 107 -19 461 -50 567 -50 131 0 442 28 566 50 134 25 169 32 202
40 19 5 60 14 90 21 30 7 80 20 110 29 30 10 75 23 100 30 25 7 59 18 75 25
17 7 51 20 78 30 26 10 47 19 47 21 0 7 -2475 2 -2500 -5z"/>
<path d="M5792 378 c5 -15 316 -116 403 -131 17 -3 50 -10 75 -16 195 -49 358
-70 632 -81 183 -8 259 -7 390 5 187 18 293 31 358 44 125 25 157 32 185 41
16 5 62 17 100 25 75 17 197 52 230 65 11 5 41 16 68 26 26 9 47 21 47 25 0 5
-541 9 -1246 9 -939 0 -1245 -3 -1242 -12z"/>
</g>
</svg>
